<?xml version="1.0" standalone="no"?>
<!DOCTYPE svg PUBLIC "-//W3C//DTD SVG 20010904//EN"
 "http://www.w3.org/TR/2001/REC-SVG-20010904/DTD/svg10.dtd">
<svg version="1.0" xmlns="http://www.w3.org/2000/svg"
 width="256.000000pt" height="256.000000pt" viewBox="0 0 256.000000 256.000000"
 preserveAspectRatio="xMidYMid meet">
<metadata>
Created by potrace 1.11, written by Peter Selinger 2001-2013
</metadata>
<g transform="translate(0.000000,256.000000) scale(0.100000,-0.100000)"
fill="#000000" stroke="none">
<path d="M2 1778 l3 -783 54 -9 c130 -22 291 32 409 139 34 31 131 134 216
228 162 182 252 271 354 351 72 57 71 60 -19 105 -133 67 -347 79 -519 31
-223 -62 -391 -203 -422 -352 -15 -73 0 -111 61 -149 79 -51 189 -39 348 37
200 95 282 244 165 300 -104 49 -340 -75 -439 -232 -26 -42 -43 -55 -43 -35 0
17 92 131 137 169 103 89 237 143 315 128 47 -9 95 -48 103 -84 15 -68 -49
-166 -157 -242 -93 -65 -180 -94 -283 -95 -188 0 -272 96 -215 248 76 203 361
357 660 357 148 0 294 -43 360 -105 l25 -24 72 46 c40 24 78 43 84 41 7 -2
-22 -25 -63 -51 l-76 -47 19 -37 c25 -50 25 -125 -2 -180 -27 -55 -79 -98
-152 -125 -45 -16 -57 -25 -51 -37 26 -63 27 -90 9 -163 -6 -23 -4 -24 29 -20
28 3 37 0 51 -22 16 -24 16 -28 1 -51 -19 -28 -47 -32 -70 -10 -21 21 -28 19
-20 -7 23 -78 147 -124 265 -99 60 13 198 78 243 115 l29 24 -41 47 c-108 123
-129 286 -52 394 37 51 76 71 136 71 91 0 175 -63 230 -172 14 -29 28 -55 30
-57 1 -1 57 46 124 105 145 130 245 206 345 263 90 52 208 93 254 89 l34 -3
-130 -117 c-121 -110 -213 -205 -359 -373 -91 -105 -254 -308 -254 -317 0 -17
51 -7 105 22 31 16 55 24 53 17 -7 -20 -80 -56 -128 -63 -31 -5 -53 -16 -71
-35 -18 -20 -37 -29 -57 -29 -38 0 -46 11 -27 36 21 28 19 31 -21 39 -20 3
-64 20 -98 37 l-62 31 -50 -36 c-100 -71 -223 -117 -313 -117 -50 0 -135 31
-167 61 -13 12 -28 37 -35 56 l-11 34 -49 -46 c-54 -51 -108 -77 -192 -95 -74
-15 -111 0 -115 48 -3 27 5 40 49 87 55 59 171 125 217 125 34 0 18 -14 -35
-28 -89 -26 -213 -132 -213 -184 0 -47 78 -41 160 12 98 63 200 202 200 273 0
54 -15 67 -76 67 -39 0 -56 4 -60 15 -4 11 -25 -10 -69 -67 -80 -107 -185
-205 -274 -258 -138 -82 -329 -128 -423 -102 l-38 10 0 -489 0 -489 1280 0
1280 0 0 1280 0 1280 -1280 0 -1280 0 2 -782z"/>
<path d="M2394 1836 c-149 -55 -320 -176 -530 -376 l-71 -67 4 -59 c3 -39 -3
-83 -16 -129 l-20 -70 20 25 c192 239 474 531 617 638 46 34 77 62 70 61 -7 0
-40 -10 -74 -23z"/>
<path d="M1041 1679 c-85 -71 -271 -285 -221 -254 7 4 36 2 65 -5 49 -12 56
-11 89 9 71 44 146 147 159 219 7 34 -6 82 -22 82 -5 0 -37 -23 -70 -51z"/>
<path d="M1501 1610 c-120 -29 -173 -188 -108 -322 15 -30 43 -73 63 -96 l36
-42 29 21 c16 11 78 68 139 126 l110 105 -15 34 c-52 124 -158 197 -254 174z"/>
<path d="M833 1403 c9 -2 23 -2 30 0 6 3 -1 5 -18 5 -16 0 -22 -2 -12 -5z"/>
<path d="M1724 1329 c-21 -22 -76 -73 -121 -112 -46 -40 -83 -76 -83 -80 0
-10 115 -63 156 -72 34 -7 39 0 75 104 23 64 36 185 22 194 -5 3 -27 -12 -49
-34z"/>
</g>
</svg>
